# xmcd
#
# Track frame offsets: 
#        150
#        26033
#        42993
#        63519
#        83976
#        107786
#        123973
#        138827
#        157920
#        178425
#        194822
#
# Disc length: 3016 seconds
#
# Revision: 0
# Processed by: cddbd v1.5.2PL0 Copyright (c) Steve Scherf et al.
# Submitted via: ExactAudioCopy v1.0b3
#
DISCID=9d0bc60b
DTITLE=Van Morrison - Keep It Simple
DYEAR=2008
DGENRE=Blues
TTITLE0=How Can a Poor Boy?
TTITLE1=School of Hard Knocks
TTITLE2=That's Entrainment
TTITLE3=Don't Go to Nightclubs Anymore
TTITLE4=Lover Come Back
TTITLE5=Keep It Simple
TTITLE6=End of the Land
TTITLE7=Song of Home
TTITLE8=No Thing
TTITLE9=Soul
TTITLE10=Behind the Ritual
EXTD=
EXTT0=
EXTT1=
EXTT2=
EXTT3=
EXTT4=
EXTT5=
EXTT6=
EXTT7=
EXTT8=
EXTT9=
EXTT10=
PLAYORDER=
